<svg xmlns="http://www.w3.org/2000/svg" viewBox="0 0 260 96" role="img" aria-label="Student Flashcards visual">
<defs><linearGradient id="g" x1="76" y1="9" x2="222" y2="90" gradientUnits="userSpaceOnUse"><stop stop-color="#2563eb"/><stop offset="1" stop-color="#ec4899"/></linearGradient><linearGradient id="ig" x1="154" y1="18" x2="205" y2="72"><stop stop-color="#6d28d9"/><stop offset="1" stop-color="#ec4899"/></linearGradient><filter id="d" x="-30%" y="-30%" width="160%" height="180%"><feDropShadow dx="0" dy="7" stdDeviation="6" flood-color="#6d28d9" flood-opacity=".2"/></filter></defs>
<path d="M5 63c31-5 55-13 76-28" stroke="#8b5cf6" stroke-width="4" stroke-linecap="round" opacity=".48"/><path d="M18 74c29-5 51-13 69-25" stroke="#2563eb" stroke-width="3" stroke-linecap="round" opacity=".33"/>
<rect x="126" y="12" width="104" height="72" rx="22" fill="url(#g)" opacity=".12" transform="rotate(-4 178 48)"/>
<rect x="143" y="10" width="80" height="72" rx="20" fill="#fff" fill-opacity=".93" stroke="#e7e8fb" filter="url(#d)" transform="rotate(-5 183 46)"/>
<g fill="none" stroke="url(#ig)" stroke-width="2.8" stroke-linecap="round" stroke-linejoin="round" transform="translate(147 10) scale(.98)"><path d="M20 31l16-8 16 8-16 8zM26 36v8c6 4 14 4 20 0v-8M51 32v11"/></g>
<rect x="224" y="15" width="27" height="27" rx="9" fill="#fff" stroke="#e9e6f8" transform="rotate(8 238 28)"/><path d="M233 29h10M238 24v10" stroke="#2563eb" stroke-width="2.4" stroke-linecap="round"/>
<rect x="226" y="57" width="23" height="23" rx="8" fill="#fff" stroke="#e9e6f8" transform="rotate(-8 238 69)"/><path d="M232 69h11" stroke="#ec4899" stroke-width="2.4" stroke-linecap="round"/>
<circle cx="113" cy="26" r="4" fill="#ec4899" opacity=".55"/><circle cx="104" cy="33" r="2.5" fill="#2563eb" opacity=".45"/>
</svg>